PathFileType	4	(X/Y/Z)	Patient4_TMGait_0pt8_01_left_04.trc.trc
DataRate	CameraRate	NumFrames	NumMarkers	Units	OrigDataRate	OrigDataStartFrame	OrigNumFrames
86.956521739130	86.956521739130	6	33	mm	86.956521739130	53	       141
Frame#	Time	Sacral			L.Shoulder			Chest			R.Shoulder			Neck			R.ASIS			L.ASIS			R.Thigh.Superior			R.Thigh.Lateral			R.Thigh.Inferior			R.Patella			L.Thigh.Superior			L.Thigh.Lateral			L.Thigh.Inferior			L.Patella			L.Shank.Superior			L.Shank.Lateral			L.Shank.Inferior			R.Shank.Superior			R.Shank.Lateral			R.Shank.Inferior			R.Heel			R.Midfoot.Superior			R.Midfoot.Lateral			R.Toe			L.Heel			L.Midfoot.Lateral			L.Midfoot.Superior			L.Toe			L.Elbow			L.Wrist			R.Elbow			R.Wrist			
		X1	Y1	Z1	X2	Y2	Z2	X3	Y3	Z3	X4	Y4	Z4	X5	Y5	Z5	X6	Y6	Z6	X7	Y7	Z7	X8	Y8	Z8	X9	Y9	Z9	X10	Y10	Z10	X11	Y11	Z11	X12	Y12	Z12	X13	Y13	Z13	X14	Y14	Z14	X15	Y15	Z15	X16	Y16	Z16	X17	Y17	Z17	X18	Y18	Z18	X19	Y19	Z19	X20	Y20	Z20	X21	Y21	Z21	X22	Y22	Z22	X23	Y23	Z23	X24	Y24	Z24	X25	Y25	Z25	X26	Y26	Z26	X27	Y27	Z27	X28	Y28	Z28	X29	Y29	Z29	X30	Y30	Z30	X31	Y31	Z31	X32	Y32	Z32	X33	Y33	Z33	

53	4.178000000000	785.318586216823	1002.738936171169	443.037408426606	962.115950005316	1424.702290168697	254.123879302994	1054.917285870233	1370.342549046549	426.585703372112	955.463006275067	1452.560509125499	589.028220340366	944.141644367413	1495.770623261251	405.280466130355	1008.916219354806	943.600618855523	569.674890422469	1010.238656514350	971.053994291082	295.560190202412	1104.227539406842	789.065882983830	556.312594940277	1068.511143015392	666.043106040760	633.433125974157	1172.831455156393	635.816563004451	569.359127907155	1196.952168029126	520.227075594027	595.504066491916	1047.251393500795	754.411010614207	323.412580281648	951.167982878213	639.831419089326	265.456898321214	1033.197437472147	560.015631160559	326.764970073523	1029.956112174056	492.246744379898	337.140015061771	1005.893254762364	420.614351054351	333.087425412991	915.555787171998	301.697561311826	294.173598114704	977.475290261064	196.077134174329	366.435131038743	1118.638123733897	443.455366357606	586.695769212961	986.346806548677	409.626589887727	623.881690208769	974.686288496514	303.433618005665	569.402898999110	777.165923295484	249.191260739271	504.273594489115	936.315621999978	191.425189956168	576.853076501434	821.880251878449	192.216705887677	588.755051303421	992.043388524014	78.462405983179	616.257503527698	858.641027310456	37.688389191632	422.743932529121	930.489314375914	34.624973200425	339.430974184960	1013.055923513405	98.553955819699	362.167190876071	1141.219892417403	50.740903189536	333.784189660194	1010.073650467680	1075.308453821989	137.182443609023	1128.127523466152	843.165050944635	143.912628344838	876.501208546624	1119.981227180003	716.793804678721	1039.766321315500	918.756319207647	703.216122226729	
54	4.189500000000	784.084124451126	1002.449936745127	441.682497898470	961.888800080272	1424.806012425716	253.879783733433	1053.913429911441	1370.109267518983	426.651533681598	953.912811253404	1451.943305375360	588.887077749472	943.331497426712	1495.662257856021	405.086432030145	1007.800275813068	943.829171630508	568.861516701575	1010.128700971458	971.429751606138	294.464146538237	1104.942882997077	792.157077329149	555.218086841836	1071.784192505326	668.656296226884	632.840644763273	1176.363397078847	640.221392521137	568.467017833588	1203.150204493662	525.822771405937	594.870223873636	1044.588390020339	753.590370673831	323.010392848102	946.832631275862	639.834403290239	264.833107138447	1027.440813473165	559.131992834681	326.415487493477	1023.287763310799	491.423545246082	337.015617649995	998.925634009758	420.088671107854	332.905482782318	907.953596861420	301.693742825748	293.840150416883	968.985791319236	195.776749355668	366.417083835573	1128.039205188018	446.394478983912	586.839259680233	997.862276206744	406.517500180230	625.148901268690	990.949593411868	299.409716176408	571.390071350723	796.021526793433	235.846256447297	508.029083667365	957.991465924525	185.323881445782	579.966790576164	843.649345395064	181.162054904231	592.491776379279	1018.664745583522	74.790996104794	619.098016208313	849.372821429856	37.674770022215	422.753090870274	921.250378562372	34.623103145557	339.448685038511	1003.849309057137	98.420579430382	362.264814744541	1132.013967823619	50.560636772138	333.850137908724	1018.221645103602	1077.574440060208	135.296539093734	1145.840091095035	850.452048316604	141.786550771107	868.530816569185	1120.089232584854	714.956519453715	1013.918447475645	904.345541074397	709.358357035910	
55	4.201000000000	782.935212553281	1002.064267884240	440.408855845651	961.759224808323	1424.853344386820	253.748872118551	1052.976671298104	1369.777105725165	426.823980257114	952.427286565121	1451.215638507205	588.849647715947	942.575195427900	1495.473414882823	405.010018665852	1006.713838263698	943.925120302234	568.172966230478	1010.083719908533	971.672937590280	293.492084993144	1105.336614244719	794.711783696926	554.152227694946	1074.453895798458	670.763294611955	632.081326751695	1179.068684267217	643.850360783034	567.238387496559	1208.352279898252	530.890721069495	593.893865396920	1041.928383178278	752.682747578486	322.543698024118	942.524489975868	639.802073198870	264.268612659276	1021.722726760757	558.234542973684	326.077507724345	1016.677297280747	490.592518731347	336.887769346177	991.990453697837	419.558920575817	332.726362352472	900.365017552408	301.702758468628	293.512586658982	960.505614124724	195.473279179795	366.390449870758	1136.751032388242	448.870363181702	586.851069061507	1009.238071313093	402.555626887946	626.515489514748	1007.606520286600	294.670845040473	573.645511760186	816.049499425371	220.978798451549	512.289596004579	980.708952610168	178.549005393279	583.565598949914	866.719196425388	169.082659268672	596.833182502602	1046.672547518658	71.033913740820	622.735546901542	840.119141687546	37.675102877807	422.750500467411	912.017334234043	34.619585558625	339.465661593418	994.655854800446	98.275952827055	362.360646160377	1122.820982180755	50.353139931367	333.918182501072	1025.682610623538	1079.900087758194	133.565215489334	1162.933585574297	858.341068373140	140.019877382731	861.309987590267	1120.120575614516	713.352882880911	987.526423886153	891.930958095612	715.378346474679	
56	4.212500000000	781.901099322332	1001.606052856443	439.235629328286	961.733723064098	1424.845290382379	253.733461536908	1052.122178362710	1369.354761221980	427.103159217019	951.023005610002	1450.395107945621	588.914032983522	941.887351932525	1495.209253711228	405.051887873687	1005.667969570119	943.870540336545	567.608480302836	1010.048860124925	971.767732234226	292.667984970078	1105.406982618342	796.670202395089	553.089921567166	1076.501411142215	672.306535603613	631.154916688057	1180.913306627072	646.609931958052	565.657963004632	1212.509166480162	535.342241279368	592.564314649173	1039.254109847527	751.687158009336	322.023506757774	938.221855499199	639.748589056650	263.763618596489	1016.024685830978	557.324091628691	325.746633901127	1010.114086757302	489.765048212592	336.746044900974	985.070691798210	419.036535654621	332.543398177620	892.772927662861	301.734180573129	293.190860910240	952.030401968928	195.175645384397	366.348618906937	1144.709980821165	450.874594307783	586.720180570768	1020.466771847591	397.850035409316	627.952314135014	1024.615975499309	289.423241757033	576.111380802487	837.336551965267	204.987805571017	516.944047772976	1004.402150657280	171.391210324179	587.553739683921	891.073086201999	156.341737731810	601.651904887778	1075.874681189328	67.499101308250	627.045183947712	830.879598777212	37.693430624306	422.731877908548	902.789464154409	34.614077797768	339.479225469890	985.474180154454	98.126267519901	362.447151038675	1113.637763912687	50.123845477774	333.983610623150	1032.416394329138	1082.221066935248	131.975428729997	1179.340395596837	866.797319641782	138.612540478694	854.708981110713	1120.146200697047	712.008692549945	960.892150125630	881.693726380701	721.218471818054	
57	4.224000000000	781.009469546970	1001.100830030404	438.181256242905	961.811078186819	1424.780641032763	253.835436213875	1051.364246107436	1368.852132406430	427.486994397452	949.720479260711	1449.499174719409	589.079619624104	941.280941154984	1494.873209143178	405.212901822403	1004.680767302751	943.650687872975	567.168979899497	1009.978716513120	971.705174967991	292.010425669076	1105.153349796156	797.979776351798	552.016945490315	1077.898089778856	673.237881361680	630.074076940903	1181.870859758805	648.427011498653	563.743412857583	1215.579057423743	539.103868861457	590.895443278521	1036.558703322020	750.604594375944	321.466288693707	933.907666181985	639.684888104330	263.316942809959	1010.331783217044	556.400737386669	325.422727822034	1003.591129049008	488.950643626922	336.583594892631	978.153800541998	418.530644631897	332.353270015291	885.165968723374	301.795194508794	292.875191090404	943.558050413557	194.891439768422	366.287682263496	1151.861100478179	452.411475772618	586.447122702414	1031.534893043114	392.527501986961	629.433204727630	1041.916094915992	283.889523974057	578.724425327565	859.929190841622	188.306483950752	521.865060613629	1028.975462865882	164.160158641675	591.820338581007	916.656549322988	143.322401677727	606.799930906529	1106.043729724142	64.490249866379	631.863603121177	821.651274381712	37.731778792336	422.695455022296	893.565301327025	34.606506901788	339.487206939304	976.301421601449	97.977248670604	362.518427191092	1104.459705808238	49.879872740307	334.042088139105	1038.408872802320	1084.475263315981	130.518749513845	1194.999001678075	875.779965889223	137.560782804248	848.575196633620	1120.248899608861	710.939795938982	934.348902086703	873.737897937987	726.826147581935	
58	4.235500000000	780.282409364739	1000.572268645371	437.262867325410	961.984869607677	1424.655301917713	254.055779126995	1050.716472183950	1368.278179495258	427.971602021117	948.543404857694	1448.543984463556	589.346476201358	940.767838899622	1494.466405803271	405.493546074794	1003.776380497472	943.254396486108	566.856059270368	1009.843927346285	971.484268534602	291.529453432528	1104.578420452460	798.598353839427	550.933142504391	1078.610112516739	673.522358452547	628.867588192209	1181.928668730695	649.255218073338	561.548073038201	1217.534465829353	542.120855460792	588.927334433297	1033.844584462212	749.438029624150	320.892382373057	929.573105947427	639.616998714865	262.926307706904	1004.636591895600	555.464039863812	325.110380021768	997.107419765120	488.154929775773	336.398019431204	971.234916006037	418.046315086476	332.156118596440	877.540785254983	301.889427666902	292.566041080296	935.089397882954	194.625563769731	366.206758214716	1158.161242810599	453.498045605197	586.044384107236	1042.419597592859	386.728481442939	630.933611127747	1059.417095658884	278.298369251398	581.415003913528	883.811215631491	171.381562116871	526.914217908160	1054.291304443296	157.172173143183	596.234114861376	943.366032269445	130.412051956134	612.112248590273	1136.915319992185	62.300234999922	636.988271451606	812.429470580046	37.789809665560	422.642267197983	884.342683197490	34.597084584739	339.488146969107	967.133780743515	97.833149402597	362.570760084589	1095.281501156841	49.629147831054	334.089884160636	1043.670347710400	1086.605756509797	129.191345410347	1209.853886821479	885.241678513520	136.857799475449	842.746313686894	1120.516900097082	710.154433662770	908.246525986372	868.082942858882	732.151074277812	
